<svg xmlns="http://www.w3.org/2000/svg" width="24" height="24" fill="currentColor" viewBox="0 0 24 24">
  <path d="M22 12a10 10 0 1 1-20 0 10 10 0 0 1 20 0Zm-10.102.518c1.15 0 1.918.675 1.926 1.647.015.989-.769 1.7-1.985 1.693-1.077-.008-1.853-.587-1.925-1.333H8.38c.059 1.471 1.313 2.68 3.442 2.68 2.067 0 3.693-1.171 3.663-2.995-.029-1.598-1.289-2.308-2.167-2.395v-.088c.746-.125 1.88-.923 1.852-2.345-.037-1.47-1.304-2.592-3.296-2.577-2.094.008-3.238 1.23-3.282 2.65h1.56c.046-.695.697-1.318 1.686-1.318.98 0 1.685.608 1.685 1.494.007.894-.704 1.546-1.678 1.546h-1.048v1.34h1.1Z"/>
</svg>
