<svg xmlns="http://www.w3.org/2000/svg" width="24" height="24" fill="currentColor" viewBox="0 0 24 24">
  <path fill-rule="evenodd" d="M19.72 8.334c-.7 0-1.28.567-1.28 1.255v4.883c0 .688.56 1.256 1.28 1.256.7 0 1.28-.568 1.28-1.257V9.59a1.289 1.289 0 0 0-1.28-1.256Zm-15.44 0C3.58 8.334 3 8.9 3 9.589v4.883c0 .688.56 1.256 1.28 1.256s1.28-.568 1.28-1.257V9.59c0-.689-.56-1.256-1.28-1.256Zm2.058.04v8.933c0 .527.44.972 1 .972h1.14v2.715c0 .688.56 1.255 1.28 1.255.7 0 1.28-.567 1.28-1.255v-2.715h2v2.715c0 .688.56 1.255 1.28 1.255.7 0 1.28-.567 1.28-1.255v-2.715h1.14c.56 0 1-.425 1-.972V8.374h-11.4Zm8.36-4.618 1.06-1.459c.04-.101.04-.222-.06-.263-.08-.06-.2-.02-.26.06l-1.08 1.52a6.884 6.884 0 0 0-2.36-.425c-.84 0-1.64.141-2.36.425l-1.08-1.519c-.06-.101-.18-.122-.26-.061a.194.194 0 0 0-.04.263l1.06 1.46c-1.66.748-2.84 2.166-2.98 3.827h11.38c-.18-1.661-1.34-3.079-3.02-3.828ZM9.6 6.065a.598.598 0 0 1-.62-.608.61.61 0 0 1 .62-.607c.36 0 .62.263.62.607a.61.61 0 0 1-.62.608Zm4.882 0a.598.598 0 0 1-.62-.608.61.61 0 0 1 .62-.607c.36 0 .62.263.62.607a.61.61 0 0 1-.62.608Z" clip-rule="evenodd"/>
</svg>
