<svg xmlns="http://www.w3.org/2000/svg" width="24" height="24" fill="currentColor" viewBox="0 0 24 24">
  <path d="M17.59 12.636a4.544 4.544 0 0 1 2.165-3.813 4.653 4.653 0 0 0-3.666-1.982c-1.542-.162-3.037.923-3.823.923-.801 0-2.011-.907-3.314-.88a4.882 4.882 0 0 0-4.109 2.505c-1.776 3.075-.45 7.595 1.25 10.081.852 1.217 1.847 2.577 3.149 2.529 1.274-.053 1.75-.813 3.287-.813 1.524 0 1.97.813 3.298.782 1.367-.022 2.229-1.223 3.05-2.451a10.065 10.065 0 0 0 1.395-2.84 4.392 4.392 0 0 1-2.681-4.041Zm-2.507-7.43A4.475 4.475 0 0 0 16.107 2a4.553 4.553 0 0 0-2.946 1.524 4.258 4.258 0 0 0-1.05 3.088 3.765 3.765 0 0 0 2.972-1.406Z"/>
</svg>
