<svg xmlns="http://www.w3.org/2000/svg" width="24" height="24" fill="currentColor" viewBox="0 0 24 24">
  <path fill-rule="evenodd" d="M12.728 2.272a1 1 0 0 0-1.456 0l-1.434 1.52a1 1 0 0 1-.913.297L6.87 3.702a1 1 0 0 0-1.177.855l-.266 2.074a1 1 0 0 1-.564.777l-1.89.894a1 1 0 0 0-.45 1.384l1.003 1.834a1 1 0 0 1 0 .96l-1.003 1.834a1 1 0 0 0 .45 1.384l1.89.894a1 1 0 0 1 .564.777l.266 2.074a1 1 0 0 0 1.177.855l2.055-.387a1 1 0 0 1 .913.296l1.434 1.521a1 1 0 0 0 1.456 0l1.434-1.52a1 1 0 0 1 .913-.297l2.055.387a1 1 0 0 0 1.177-.855l.266-2.074a1 1 0 0 1 .564-.777l1.89-.894a1 1 0 0 0 .45-1.384l-1.003-1.834a1 1 0 0 1 0-.96l1.003-1.834a1 1 0 0 0-.45-1.384l-1.89-.894a1 1 0 0 1-.564-.777l-.266-2.074a1 1 0 0 0-1.177-.855l-2.055.387a1 1 0 0 1-.913-.296l-1.434-1.521Zm2.82 8.24a.75.75 0 0 0-1.096-1.024l-3.47 3.719-1.452-1.452a.75.75 0 1 0-1.06 1.061l2 2a.75.75 0 0 0 1.078-.019l4-4.285Z" clip-rule="evenodd"/>
</svg>
