<svg width="18" height="19" viewBox="0 0 18 19" fill="none" xmlns="http://www.w3.org/2000/svg">
<path fill-rule="evenodd" clip-rule="evenodd" d="M13 14V11V9V8H15.9358C15.7367 6.49141 15.0747 5.17474 13.95 4.05005C12.5834 2.68335 10.9333 2 9 2C7.06665 2 5.41663 2.68335 4.05005 4.05005C2.92526 5.17474 2.26332 6.49141 2.06423 8H5V9V11V14H0V9C0 7.76672 0.237549 6.60413 0.712524 5.51245C1.1875 4.42078 1.83337 3.46667 2.65002 2.65002C3.46667 1.83337 4.42078 1.1875 5.51245 0.712524C6.60413 0.237549 7.76672 0 9 0C10.2333 0 11.3959 0.237549 12.4875 0.712524C13.5792 1.1875 14.5333 1.83337 15.35 2.65002C16.1666 3.46667 16.8125 4.42078 17.2875 5.51245C17.7625 6.60413 18 7.76672 18 9V14C18 14.66 17.8102 15.6278 17.2115 16.4593C16.5761 17.3418 15.5259 18 14 18H11.9146C11.7087 18.5826 11.1531 19 10.5 19H9.5C8.67157 19 8 18.3284 8 17.5V16.5C8 15.6716 8.67157 15 9.5 15H10.5C11.1531 15 11.7087 15.4174 11.9146 16H14C14.8741 16 15.3239 15.6582 15.5885 15.2907C15.8898 14.8722 16 14.34 16 14H13Z" fill="white"/>
</svg>
