<svg xmlns="http://www.w3.org/2000/svg" width="24" height="24" fill="currentColor" viewBox="0 0 24 24">
  <g clip-path="url(#a)">
    <path fill-rule="evenodd" d="M0 12C0 5.372 5.372 0 12 0s12 5.372 12 12-5.372 12-12 12S0 18.628 0 12Zm12.498-5.465a.748.748 0 0 0-1.496 0v5.671l-1.216-1.215a.748.748 0 1 0-1.057 1.057l2.492 2.492a.748.748 0 0 0 1.058 0l2.492-2.492a.748.748 0 1 0-1.057-1.057l-1.216 1.216V6.535Zm-4.985 7.477a.748.748 0 1 0-1.495 0v1.246a1.994 1.994 0 0 0 1.994 1.994h7.476a1.994 1.994 0 0 0 1.994-1.994v-1.246a.748.748 0 1 0-1.495 0v1.246a.498.498 0 0 1-.498.498H8.011a.498.498 0 0 1-.499-.498v-1.246Z" clip-rule="evenodd"/>
  </g>
  <defs>
    <clipPath id="a">
      <path d="M0 0h24v24H0z"/>
    </clipPath>
  </defs>
</svg>
