<svg xmlns="http://www.w3.org/2000/svg" width="24" height="24" fill="currentColor" viewBox="0 0 24 24">
  <path fill-rule="evenodd" d="M13.318 11.994a.483.483 0 0 0-.131-.257L4.657 3.77c-.066-.064-.198-.064-.263-.064-.132 0-.197.064-.263.192-.065.193-.131.386-.131.579V19.51c0 .193.066.385.131.578.066.064.131.193.263.193h.065c.066 0 .197 0 .197-.064l8.597-7.966c.065-.064.065-.193.065-.257Zm.47-.643c.065.064.13.064.196.064s.131 0 .197-.064l2.362-2.184a.483.483 0 0 0 .131-.257c0-.128-.065-.193-.196-.257L6.24 3.193c-.197-.129-.394-.129-.59-.193a.362.362 0 0 0-.329.193c-.066.128 0 .257.066.385l8.4 7.773Zm.458 1.285a.322.322 0 0 0-.459 0l-8.4 7.773c-.065.129-.13.257-.065.386a.362.362 0 0 0 .328.192c.197 0 .394-.064.59-.192l10.172-5.525a.879.879 0 0 0 .197-.257c0-.128 0-.193-.131-.257l-2.232-2.12Zm5.966-1.991-2.493-1.35c-.132-.064-.263-.064-.394.065L14.7 11.8c-.066.065-.131.13-.131.258s.065.193.131.257l2.56 2.377c.065.064.13.064.196.064s.131 0 .131-.064l2.625-1.414c.46-.257.788-.77.788-1.285 0-.513-.197-1.092-.788-1.348Z" clip-rule="evenodd"/>
</svg>
