<svg xmlns="http://www.w3.org/2000/svg" width="24" height="24" fill="currentColor" viewBox="0 0 24 24">
  <path d="m11.645 20.91-.007-.003-.022-.012c-.129-.07-.256-.143-.383-.218a25.176 25.176 0 0 1-4.244-3.17C4.688 15.36 2.25 12.174 2.25 8.25 2.25 5.322 4.714 3 7.688 3A5.5 5.5 0 0 1 12 5.052 5.5 5.5 0 0 1 16.313 3c2.973 0 5.437 2.322 5.437 5.25 0 3.925-2.438 7.111-4.739 9.256a25.177 25.177 0 0 1-4.244 3.17c-.127.075-.254.148-.383.219l-.022.012-.007.004-.003.001a.752.752 0 0 1-.704 0l-.003-.002Z"/>
</svg>
