<svg width="7" height="11" viewBox="0 0 7 11" fill="none" xmlns="http://www.w3.org/2000/svg">
<path fill-rule="evenodd" clip-rule="evenodd" d="M4.32435 0.95186C4.41821 1.01611 4.46296 1.13044 4.43729 1.24042L3.88889 4.78593H6.38791C6.54186 4.78593 6.66667 4.90931 6.66667 5.06152C6.66667 5.11758 6.64938 5.1723 6.6171 5.21839L2.73018 10.7692C2.64255 10.8943 2.4689 10.9255 2.34232 10.8389C2.24846 10.7747 2.2037 10.6603 2.22937 10.5503L2.77778 7.00484H0.278755C0.124803 7.00484 0 6.88145 0 6.72924C0 6.67318 0.0172906 6.61846 0.0495647 6.57237L3.93649 1.02158C4.02412 0.896437 4.19777 0.865222 4.32435 0.95186Z" fill="#FFEF47"/>
</svg>
