<svg width="20" height="20" viewBox="0 0 20 20" fill="none" xmlns="http://www.w3.org/2000/svg">
<path d="M10 20C15.524 20 20 15.5242 20 10C20 4.47583 15.524 0 10 0C4.476 0 0 4.47583 0 10C0 15.5242 4.476 20 10 20ZM4.576 9.7833L14.218 6.06583C14.665 5.90417 15.056 6.175 14.911 6.85167L14.912 6.85083L13.27 14.585C13.148 15.1333 12.822 15.2667 12.367 15.0083L9.867 13.1658L8.661 14.3275C8.527 14.4608 8.415 14.5733 8.157 14.5733L8.334 12.0292L12.967 7.84333C13.169 7.66583 12.922 7.56583 12.657 7.7425L6.931 11.3475L4.462 10.5775C3.927 10.4075 3.915 10.0417 4.576 9.7833Z" fill="white"/>
</svg>
