<svg width="24" height="24" viewBox="0 0 24 24" fill="none" xmlns="http://www.w3.org/2000/svg">
<path d="M15.6752 4.89224C19.7727 8.08792 20.093 14.7874 16.324 18.4617L15.5883 19.1789L16.9217 20.9195L17.6574 20.2023C22.4354 15.5442 22.0293 7.05122 16.8349 3L15.6752 4.89224ZM6.79716 10.8474L7.36434 10.3142L10.1373 7.70743V16.901L7.19002 14.6845L6.67629 14.2981H6.05886H5.03924V10.8474H6.05886H6.79716ZM10.1373 4.71293L6.05886 8.547H5.03924H3V10.8474V14.2981V16.5985H5.03924H6.05886L10.1373 19.6658L10.3391 19.8175L11.605 20.7696L11.8595 20.961C11.995 21.0629 12.1766 20.9533 12.1766 20.7696V20.4245V18.7081V18.4346V5.7904V5.34955V3.56311V3.28706C12.1766 3.09202 11.9749 2.98547 11.8421 3.11033L11.6541 3.28706L10.4375 4.43071L10.1373 4.71293ZM14.0123 15.3371C16.1403 13.559 15.9741 9.90923 13.696 8.3863L14.7356 6.40726C18.2682 8.76881 18.5258 14.4284 15.2262 17.1857L14.8227 17.5228L13.6089 15.6743L14.0123 15.3371Z" fill="#FFEF47"/>
</svg>
