<svg xmlns="http://www.w3.org/2000/svg" width="24" height="24" fill="none" viewBox="0 0 24 24">
  <path fill="#fff" fill-rule="evenodd" d="M6.465 3.973a9.75 9.75 0 1 1 11.07 16.054A9.75 9.75 0 0 1 6.464 3.973Zm.617 14.652a8.216 8.216 0 0 0 4.917 1.625H12a8.216 8.216 0 0 0 4.917-1.625A6.74 6.74 0 0 0 12 16.5h-.002a6.74 6.74 0 0 0-4.917 2.125Zm10.954-1.001a8.25 8.25 0 1 0-12.072 0A8.24 8.24 0 0 1 12 15l-.001.75V15a8.24 8.24 0 0 1 6.036 2.624ZM12 7.5a2.25 2.25 0 1 0 0 4.5 2.25 2.25 0 0 0 0-4.5Zm-2.652-.402a3.75 3.75 0 1 1 5.304 5.303 3.75 3.75 0 0 1-5.304-5.303Z" clip-rule="evenodd"/>
</svg>
