<svg xmlns="http://www.w3.org/2000/svg" width="24" height="24" fill="none" viewBox="0 0 24 24">
  <path fill="#fff" fill-rule="evenodd" d="M7.5 3.25a.75.75 0 0 1 .75.75v9.129a2.25 2.25 0 0 1 0 4.242V20.5a.75.75 0 0 1-1.5 0v-3.129a2.25 2.25 0 0 1 0-4.242V4a.75.75 0 0 1 .75-.75Zm8 0a.75.75 0 0 1 .75.75v3.129a2.25 2.25 0 0 1 0 4.242V20.5a.75.75 0 0 1-1.5 0v-9.129a2.25 2.25 0 0 1 0-4.242V4a.75.75 0 0 1 .75-.75Zm0 5.25a.75.75 0 1 0 0 1.5.75.75 0 0 0 0-1.5Zm-8 6a.75.75 0 1 0 0 1.5.75.75 0 0 0 0-1.5Z" clip-rule="evenodd"/>
</svg>
