<svg width="16" height="16" viewBox="0 0 16 16" fill="none" xmlns="http://www.w3.org/2000/svg">
<path d="M4 14.6663C3.44444 14.6663 2.97222 14.4719 2.58333 14.083C2.19444 13.6941 2 13.2219 2 12.6663V3.33301C2 2.77745 2.19444 2.30523 2.58333 1.91634C2.97222 1.52745 3.44444 1.33301 4 1.33301H11.3333V11.9997H4C3.81111 11.9997 3.65278 12.0636 3.525 12.1913C3.39722 12.3191 3.33333 12.4775 3.33333 12.6663C3.33333 12.8552 3.39722 13.0136 3.525 13.1413C3.65278 13.2691 3.81111 13.333 4 13.333H12.6667V2.66634H14V14.6663H4ZM6 10.6663H10V2.66634H6V10.6663ZM4.66667 10.6663V2.66634H4C3.81111 2.66634 3.65278 2.73023 3.525 2.85801C3.39722 2.98579 3.33333 3.14412 3.33333 3.33301V10.783C3.44444 10.7497 3.55278 10.7219 3.65833 10.6997C3.76389 10.6775 3.87778 10.6663 4 10.6663H4.66667Z" fill="#7B7D89"/>
</svg>
