<svg xmlns="http://www.w3.org/2000/svg" width="24" height="24" fill="none" viewBox="0 0 24 24">
  <path fill="#fff" fill-rule="evenodd" d="M6.405 3.404A.832.832 0 0 1 7 3.15c.22 0 .435.09.596.254a.909.909 0 0 1 .254.634.91.91 0 0 1-.254.635.832.832 0 0 1-.596.254.832.832 0 0 1-.595-.254.909.909 0 0 1-.255-.635c0-.24.093-.468.255-.634ZM7 1.85c-.576 0-1.124.235-1.526.647a2.209 2.209 0 0 0-.624 1.541c0 .576.223 1.13.624 1.542a2.14 2.14 0 0 0 1.087.6c-.8.1-1.55.467-2.127 1.05A3.765 3.765 0 0 0 3.35 9.82a.65.65 0 0 0 .373.598c.998.47 2.108.732 3.276.732a7.675 7.675 0 0 0 3.278-.731.65.65 0 0 0 .373-.599 3.765 3.765 0 0 0-1.084-2.59 3.621 3.621 0 0 0-2.127-1.05 2.14 2.14 0 0 0 1.087-.6c.402-.412.624-.966.624-1.542 0-.575-.222-1.13-.624-1.541A2.132 2.132 0 0 0 7 1.85ZM5.358 8.145A2.312 2.312 0 0 1 7 7.454c.612 0 1.202.246 1.643.69.343.347.574.793.665 1.276A6.37 6.37 0 0 1 7 9.85c-.813 0-1.59-.152-2.308-.43.09-.483.322-.929.666-1.275ZM11.99 3a.75.75 0 0 0 0 1.5 8.25 8.25 0 0 1 8.25 8.25.75.75 0 0 0 1.5 0A9.75 9.75 0 0 0 11.99 3ZM4.25 13.27a.75.75 0 0 0-1.5 0c0 2.507.47 4.498 2.346 6.374A9.75 9.75 0 0 0 11.99 22.5a.75.75 0 0 0 0-1.5 8.25 8.25 0 0 1-5.834-2.416c-1.5-1.5-1.906-3.047-1.906-5.314Zm13.75.88c-.22 0-.435.09-.595.254a.908.908 0 0 0-.255.635c0 .24.093.468.255.633a.83.83 0 0 0 .595.255.83.83 0 0 0 .595-.255.908.908 0 0 0 .255-.633.908.908 0 0 0-.255-.635.831.831 0 0 0-.595-.254Zm-1.526-.653c.402-.412.95-.647 1.526-.647.576 0 1.124.235 1.526.647.401.411.624.966.624 1.542 0 .575-.223 1.13-.624 1.541a2.14 2.14 0 0 1-1.087.6c.8.1 1.55.468 2.127 1.05a3.766 3.766 0 0 1 1.084 2.59.65.65 0 0 1-.373.599 7.674 7.674 0 0 1-3.278.731 7.672 7.672 0 0 1-3.276-.731.65.65 0 0 1-.373-.599 3.766 3.766 0 0 1 1.084-2.59 3.621 3.621 0 0 1 2.127-1.05 2.14 2.14 0 0 1-1.087-.6 2.209 2.209 0 0 1-.624-1.541c0-.576.223-1.13.624-1.542ZM18 18.454c-.611 0-1.202.246-1.643.69a2.452 2.452 0 0 0-.665 1.276c.718.278 1.495.43 2.308.43a6.372 6.372 0 0 0 2.308-.43 2.452 2.452 0 0 0-.665-1.275A2.313 2.313 0 0 0 18 18.454Z" clip-rule="evenodd"/>
</svg>
