<svg width="16" height="16" viewBox="0 0 16 16" fill="none" xmlns="http://www.w3.org/2000/svg">
<path d="M4.33333 3.33333V12.6667H11.6667V3.33333H4.33333ZM3 2H4H12H13V3V13V14H12H4H3V13V3V2ZM6.33333 5.33333V6.33333H9.66667V5.33333H6.33333ZM5.33333 4.33333H6H10H10.6667V5V6.66667V7.33333H10H6H5.33333V6.66667V5V4.33333ZM6.66667 8.33333V9.66667H5.33333V8.33333H6.66667ZM6.66667 11.6667V10.3333H5.33333V11.6667H6.66667ZM7.33333 8.33333H8.66667V9.66667H7.33333V8.33333ZM8.66667 10.3333H7.33333V11.6667H8.66667V10.3333ZM10.6667 8.33333V9.66667H9.33333V8.33333H10.6667ZM10.6667 11.6667V10.3333H9.33333V11.6667H10.6667Z" fill="#C2C5D6"/>
</svg>
