<svg xmlns="http://www.w3.org/2000/svg" width="24" height="24" fill="none" viewBox="0 0 24 24">
  <path fill="#fff" fill-rule="evenodd" d="m13.433 4.479-1.434-1.521-1.435 1.52a2 2 0 0 1-1.826.594l-2.054-.387-.267 2.073A2 2 0 0 1 5.29 8.312l-1.89.894 1.003 1.834a2 2 0 0 1 0 1.92L3.4 14.794l1.89.894a2 2 0 0 1 1.128 1.554l.267 2.073 2.054-.387a2 2 0 0 1 1.826.593l1.434 1.521 1.435-1.52a2 2 0 0 1 1.826-.594l2.055.387.266-2.073a2 2 0 0 1 1.128-1.554l1.89-.894-1.003-1.834a2 2 0 0 1 0-1.92l1.003-1.834-1.89-.894a2 2 0 0 1-1.128-1.554l-.266-2.073-2.055.387a2 2 0 0 1-1.826-.593Zm-.707-2.207a1 1 0 0 0-1.455 0l-1.435 1.52a1 1 0 0 1-.912.297l-2.055-.387a1 1 0 0 0-1.177.855l-.267 2.074a1 1 0 0 1-.564.777l-1.89.894a1 1 0 0 0-.45 1.384l1.004 1.834a1 1 0 0 1 0 .96L2.52 14.314a1 1 0 0 0 .45 1.384l1.89.894a1 1 0 0 1 .564.777l.267 2.074a1 1 0 0 0 1.177.855l2.055-.387a1 1 0 0 1 .912.296l1.435 1.521a1 1 0 0 0 1.455 0l1.434-1.52a1 1 0 0 1 .913-.297l2.055.387a1 1 0 0 0 1.177-.855l.267-2.074a1 1 0 0 1 .564-.777l1.89-.894a1 1 0 0 0 .45-1.384l-1.004-1.834a1 1 0 0 1 0-.96l1.004-1.834a1 1 0 0 0-.45-1.384l-1.89-.894a1 1 0 0 1-.564-.777l-.267-2.074a1 1 0 0 0-1.177-.855l-2.055.387a1 1 0 0 1-.912-.296l-1.435-1.521Z" clip-rule="evenodd"/>
  <path fill="#fff" fill-rule="evenodd" d="M12.544 2.443a.75.75 0 0 0-1.091 0l-1.435 1.521a1.25 1.25 0 0 1-1.14.371l-2.055-.387a.75.75 0 0 0-.883.641l-.267 2.074a1.25 1.25 0 0 1-.705.97l-1.89.895a.75.75 0 0 0-.337 1.038L3.744 11.4a1.25 1.25 0 0 1 0 1.2l-1.003 1.834a.75.75 0 0 0 .337 1.038l1.89.894c.385.183.651.549.705.971l.267 2.074a.75.75 0 0 0 .883.641l2.054-.387a1.25 1.25 0 0 1 1.141.37l1.435 1.522a.75.75 0 0 0 1.091 0l1.435-1.521a1.25 1.25 0 0 1 1.14-.371l2.055.387a.75.75 0 0 0 .883-.641l.267-2.074a1.25 1.25 0 0 1 .705-.97l1.89-.895a.75.75 0 0 0 .337-1.038L20.253 12.6a1.25 1.25 0 0 1 0-1.2l1.003-1.834a.75.75 0 0 0-.337-1.038l-1.89-.894a1.25 1.25 0 0 1-.705-.971l-.267-2.074a.75.75 0 0 0-.883-.641l-2.054.387a1.25 1.25 0 0 1-1.141-.37l-1.435-1.522ZM11.09 2.1a1.25 1.25 0 0 1 1.819 0l1.434 1.521a.75.75 0 0 0 .685.223l2.055-.388a1.25 1.25 0 0 1 1.471 1.07l.267 2.073a.75.75 0 0 0 .423.583l1.89.894a1.25 1.25 0 0 1 .562 1.73L20.69 11.64a.75.75 0 0 0 0 .72l1.004 1.834a1.25 1.25 0 0 1-.562 1.73l-1.89.894a.75.75 0 0 0-.423.583l-.267 2.074a1.25 1.25 0 0 1-1.471 1.069l-2.055-.388a.75.75 0 0 0-.685.223l-1.434 1.52a1.25 1.25 0 0 1-1.819 0l-1.434-1.52a.75.75 0 0 0-.685-.223l-2.055.388a1.25 1.25 0 0 1-1.471-1.07l-.267-2.073a.75.75 0 0 0-.423-.583l-1.89-.894a1.25 1.25 0 0 1-.562-1.73l1.004-1.834a.75.75 0 0 0 0-.72L2.302 9.806a1.25 1.25 0 0 1 .562-1.73l1.89-.894a.75.75 0 0 0 .423-.583l.267-2.074a1.25 1.25 0 0 1 1.471-1.069l2.055.388a.75.75 0 0 0 .685-.223l1.434-1.52Zm.91.493 1.616 1.714a1.75 1.75 0 0 0 1.598.52l2.315-.437.3 2.337a1.75 1.75 0 0 0 .987 1.359l2.13 1.007-1.13 2.067a1.75 1.75 0 0 0 0 1.68l1.13 2.067-2.13 1.007a1.75 1.75 0 0 0-.987 1.36l-.3 2.336-2.315-.436a1.75 1.75 0 0 0-1.598.519l-1.617 1.714-1.616-1.714a1.75 1.75 0 0 0-1.597-.52l-2.316.437-.3-2.337a1.75 1.75 0 0 0-.987-1.359l-2.13-1.007 1.13-2.067a1.75 1.75 0 0 0 0-1.68l-1.13-2.067 2.13-1.007a1.75 1.75 0 0 0 .987-1.36l.3-2.336 2.316.436a1.75 1.75 0 0 0 1.597-.519L12 2.593Zm0 .729L10.745 4.65a2.25 2.25 0 0 1-2.054.668l-1.794-.339-.233 1.811a2.25 2.25 0 0 1-1.27 1.748l-1.65.78.877 1.602a2.25 2.25 0 0 1 0 2.16l-.877 1.602 1.65.78a2.25 2.25 0 0 1 1.27 1.748l.233 1.81 1.794-.338a2.25 2.25 0 0 1 2.054.668l1.252 1.328 1.253-1.328a2.25 2.25 0 0 1 2.054-.668l1.794.339.233-1.811a2.25 2.25 0 0 1 1.27-1.748l1.65-.78-.877-1.602a2.25 2.25 0 0 1 0-2.16l.877-1.602-1.65-.78a2.25 2.25 0 0 1-1.27-1.748l-.233-1.81-1.794.338a2.25 2.25 0 0 1-2.054-.668L12 3.322Z" clip-rule="evenodd"/>
  <path fill="#fff" fill-rule="evenodd" d="M15.512 9.452a.75.75 0 0 1 .036 1.06l-4 4.285a.75.75 0 0 1-1.078.019l-2-2a.75.75 0 1 1 1.06-1.06l1.451 1.45 3.47-3.718a.75.75 0 0 1 1.06-.036Z" clip-rule="evenodd"/>
</svg>
