<svg xmlns="http://www.w3.org/2000/svg" width="24" height="24" fill="none" viewBox="0 0 24 24">
  <path stroke="#fff" stroke-linecap="round" stroke-linejoin="round" stroke-width="1.5" d="M21 12a9 9 0 1 1-18 0 9 9 0 0 1 18 0ZM8.112 12a3.888 3.888 0 1 0 7.776 0 3.888 3.888 0 0 0-7.776 0Z"/>
  <path stroke="#fff" stroke-linecap="round" stroke-linejoin="round" stroke-width="1.5" d="M12 3a9 9 0 0 1 9 9h-5.143A3.857 3.857 0 0 0 12 8.143V3Z"/>
  <path stroke="#fff" stroke-linecap="round" stroke-linejoin="round" stroke-width="1.5" d="M12 3a9 9 0 0 1 0 18v-5.143a3.857 3.857 0 1 0 0-7.714V3Z"/>
</svg>
