<svg xmlns="http://www.w3.org/2000/svg" width="24" height="24" fill="none" viewBox="0 0 24 24">
  <path stroke="#fff" stroke-linecap="round" stroke-linejoin="round" stroke-width="1.385" d="M19.615 8.78A2.023 2.023 0 0 1 21 10.714v3.956c0 1.049-.782 1.939-1.828 2.025-.314.025-.627.048-.941.066v2.853l-2.77-2.769c-1.25 0-2.486-.05-3.71-.15a1.952 1.952 0 0 1-.762-.224m8.626-7.693a1.963 1.963 0 0 0-.439-.087 44.9 44.9 0 0 0-7.429 0c-1.044.086-1.824.975-1.824 2.023v3.956c0 .773.425 1.459 1.066 1.801m8.626-7.693V7.05c0-1.496-1.063-2.793-2.547-2.986a44.745 44.745 0 0 0-11.52 0C4.063 4.256 3 5.553 3 7.05v5.747c0 1.496 1.063 2.793 2.548 2.986.532.069 1.068.129 1.606.179v4.346l3.835-3.836"/>
</svg>
