<svg xmlns="http://www.w3.org/2000/svg" width="24" height="24" fill="none" viewBox="0 0 24 24">
  <path fill="#fff" d="M9.172 10.172h.75-.75Zm0 3.656h-.75.75ZM21.25 12A9.25 9.25 0 0 1 12 21.25v1.5c5.937 0 10.75-4.813 10.75-10.75h-1.5ZM12 2.75A9.25 9.25 0 0 1 21.25 12h1.5c0-5.937-4.813-10.75-10.75-10.75v1.5ZM2.75 12A9.25 9.25 0 0 1 12 2.75v-1.5C6.063 1.25 1.25 6.063 1.25 12h1.5ZM12 21.25A9.25 9.25 0 0 1 2.75 12h-1.5c0 5.937 4.813 10.75 10.75 10.75v-1.5ZM9.922 10.172a.25.25 0 0 1 .25-.25v-1.5a1.75 1.75 0 0 0-1.75 1.75h1.5Zm0 3.656v-3.656h-1.5v3.656h1.5Zm.25.25a.25.25 0 0 1-.25-.25h-1.5c0 .967.783 1.75 1.75 1.75v-1.5Zm3.656 0h-3.656v1.5h3.656v-1.5Zm.25-.25a.25.25 0 0 1-.25.25v1.5a1.75 1.75 0 0 0 1.75-1.75h-1.5Zm0-3.656v3.656h1.5v-3.656h-1.5Zm-.25-.25a.25.25 0 0 1 .25.25h1.5a1.75 1.75 0 0 0-1.75-1.75v1.5Zm-3.656 0h3.656v-1.5h-3.656v1.5Z"/>
</svg>
