<svg xmlns="http://www.w3.org/2000/svg" width="24" height="24" fill="none" viewBox="0 0 24 24">
  <path fill="#B368FF" fill-rule="evenodd" d="M12.62 5.743a6.5 6.5 0 1 1 2.875 12.663 8.026 8.026 0 0 1-2.62 1.96A8.5 8.5 0 1 0 9.406 5.112h.091c1.108 0 2.163.224 3.122.631Z" clip-rule="evenodd"/>
  <path fill="#B368FF" d="M8.123 15.232v1-1Zm2.743 0v1-1ZM16 13.112a6.5 6.5 0 0 1-6.5 6.5v2a8.5 8.5 0 0 0 8.5-8.5h-2Zm-6.5-6.5a6.5 6.5 0 0 1 6.5 6.5h2a8.5 8.5 0 0 0-8.5-8.5v2Zm-6.5 6.5a6.5 6.5 0 0 1 6.5-6.5v-2a8.5 8.5 0 0 0-8.5 8.5h2Zm6.5 6.5a6.5 6.5 0 0 1-6.5-6.5H1a8.5 8.5 0 0 0 8.5 8.5v-2ZM8.373 11.74a.25.25 0 0 1-.25.25v-2a1.75 1.75 0 0 0-1.75 1.75h2Zm0 2.742V11.74h-2v2.742h2Zm-.25-.25a.25.25 0 0 1 .25.25h-2c0 .967.784 1.75 1.75 1.75v-2Zm2.743 0H8.123v2h2.743v-2Zm-.25.25a.25.25 0 0 1 .25-.25v2a1.75 1.75 0 0 0 1.75-1.75h-2Zm0-2.742v2.742h2V11.74h-2Zm.25.25a.25.25 0 0 1-.25-.25h2a1.75 1.75 0 0 0-1.75-1.75v2Zm-2.743 0h2.743v-2H8.123v2Z"/>
</svg>
