<svg xmlns="http://www.w3.org/2000/svg" width="24" height="24" fill="none" viewBox="0 0 24 24">
  <path fill="#fff" fill-rule="evenodd" d="M6 3.25A2.75 2.75 0 0 0 3.25 6v8A2.75 2.75 0 0 0 6 16.75h1.25V18A2.75 2.75 0 0 0 10 20.75h8A2.75 2.75 0 0 0 20.75 18v-8A2.75 2.75 0 0 0 18 7.25h-1.25V6A2.75 2.75 0 0 0 14 3.25H6Zm9.25 4V6A1.25 1.25 0 0 0 14 4.75H6A1.25 1.25 0 0 0 4.75 6v8A1.25 1.25 0 0 0 6 15.25h1.25V10A2.75 2.75 0 0 1 10 7.25h5.25ZM8.75 16v2A1.25 1.25 0 0 0 10 19.25h8A1.25 1.25 0 0 0 19.25 18v-8A1.25 1.25 0 0 0 18 8.75h-8A1.25 1.25 0 0 0 8.75 10v6Z" clip-rule="evenodd"/>
</svg>
