<svg xmlns="http://www.w3.org/2000/svg" width="24" height="24" fill="none" viewBox="0 0 24 24">
  <path fill="#fff" d="M19.31 2.31H4.69C2.49 2.31.71 3.88.71 5.8v12.4c0 1.92 1.79 3.49 3.98 3.49h14.62c2.2 0 3.98-1.57 3.98-3.49V5.8c0-1.92-1.79-3.49-3.98-3.49Zm2.48 15.89c0 1.1-1.11 1.99-2.48 1.99H4.69c-1.37 0-2.48-.89-2.48-1.99V5.8c0-1.1 1.11-1.99 2.48-1.99h14.62c1.37 0 2.48.89 2.48 1.99v12.4Z"/>
  <path fill="#fff" d="M19.49 8.04h-2.57c-.41 0-.75.34-.75.75s.34.75.75.75h2.57c.41 0 .75-.34.75-.75s-.34-.75-.75-.75Zm0 3.27h-2.57c-.41 0-.75.34-.75.75s.34.75.75.75h2.57c.41 0 .75-.34.75-.75s-.34-.75-.75-.75Zm0 3.15h-1.4c-.41 0-.75.34-.75.75s.34.75.75.75h1.4c.41 0 .75-.34.75-.75s-.34-.75-.75-.75Zm-5.4-5.38a5.629 5.629 0 0 0-4.8-2.71C6.18 6.37 3.66 8.9 3.66 12s2.53 5.63 5.63 5.63 5.63-2.53 5.63-5.63c0-1.07-.3-2.06-.82-2.91l-.01-.01ZM9.28 7.87c1.24 0 2.34.56 3.1 1.43l-1.54 1c-.41-.36-.94-.59-1.53-.59-.59 0-1.08.21-1.48.55L6.24 9.23C7 8.4 8.07 7.87 9.28 7.87ZM5.15 12c0-.53.11-1.03.29-1.5l1.6 1.04a2.321 2.321 0 0 0 1.49 2.67v1.85A4.125 4.125 0 0 1 5.15 12Zm4.88 4.06v-1.83c.93-.3 1.6-1.17 1.6-2.2 0-.15-.02-.29-.04-.43l1.56-1.01c.16.44.27.91.27 1.41 0 2.02-1.46 3.7-3.38 4.06h-.01Z"/>
</svg>
