<svg xmlns="http://www.w3.org/2000/svg" width="24" height="24" fill="none" viewBox="0 0 24 24">
  <path fill="#fff" fill-rule="evenodd" d="M19.875 3c-.298 0-.585.118-.796.33l-1.157 1.157 1.591 1.59 1.158-1.156A1.125 1.125 0 0 0 19.875 3Zm-1.422 4.138-1.591-1.59-8.402 8.4a3.75 3.75 0 0 0-.941 1.581l-.404 1.356 1.356-.404a3.751 3.751 0 0 0 1.58-.941l8.402-8.401Zm-.434-4.87a2.626 2.626 0 0 1 3.712 3.713l-10.619 10.62A5.251 5.251 0 0 1 8.9 17.918l-2.685.8a.75.75 0 0 1-.933-.933l.8-2.685A5.251 5.251 0 0 1 7.4 12.888l10.619-10.62ZM5.25 6.75a1.5 1.5 0 0 0-1.5 1.5v10.5a1.5 1.5 0 0 0 1.5 1.5h10.5a1.5 1.5 0 0 0 1.5-1.5V14a.75.75 0 0 1 1.5 0v4.75a3 3 0 0 1-3 3H5.25a3 3 0 0 1-3-3V8.25a3 3 0 0 1 3-3H10a.75.75 0 0 1 0 1.5H5.25Z" clip-rule="evenodd"/>
</svg>
