<svg xmlns="http://www.w3.org/2000/svg" width="24" height="24" fill="none" viewBox="0 0 24 24">
  <path fill="#fff" fill-rule="evenodd" d="M1.5 3a.75.75 0 0 1 .75-.75h19.5a.75.75 0 0 1 0 1.5H21v10.5a3 3 0 0 1-3 3h-1.21l1.172 3.513a.75.75 0 0 1-1.424.474l-.329-.987H7.791l-.33.987a.75.75 0 0 1-1.423-.474L7.21 17.25H6a3 3 0 0 1-3-3V3.75h-.75A.75.75 0 0 1 1.5 3Zm3 .75v10.5a1.5 1.5 0 0 0 1.5 1.5h12a1.5 1.5 0 0 0 1.5-1.5V3.75h-15Zm4.29 13.5-.5 1.5h7.42l-.5-1.5H8.79Zm8.36-10.02a.75.75 0 0 1-.273 1.024 11.31 11.31 0 0 0-3.613 3.323.75.75 0 0 1-1.145.101L10.5 10.061l-2.47 2.47a.75.75 0 0 1-1.06-1.061l3-3a.75.75 0 0 1 1.06 0l1.537 1.536a12.811 12.811 0 0 1 3.557-3.05.75.75 0 0 1 1.025.273Z" clip-rule="evenodd"/>
</svg>
