<svg xmlns="http://www.w3.org/2000/svg" width="24" height="24" fill="none" viewBox="0 0 24 24">
  <path fill="#fff" fill-rule="evenodd" d="M2.379 4.629A3 3 0 0 1 4.5 3.75h15a3 3 0 0 1 3 3v10.5a3 3 0 0 1-3 3h-15a3 3 0 0 1-3-3V6.75a3 3 0 0 1 .879-2.121ZM3 6.75a1.5 1.5 0 0 1 1.5-1.5h15a1.5 1.5 0 0 1 1.5 1.5v.243a1.501 1.501 0 0 1-.713 1.277l-7.5 4.615a1.501 1.501 0 0 1-1.574 0l-7.5-4.614A1.502 1.502 0 0 1 3 6.994V6.75Zm0 2.844v7.656a1.5 1.5 0 0 0 1.5 1.5h15a1.5 1.5 0 0 0 1.5-1.5V9.593l-7.427 4.57a3.002 3.002 0 0 1-3.146 0L3 9.593Z" clip-rule="evenodd"/>
</svg>
