<svg xmlns="http://www.w3.org/2000/svg" width="24" height="24" fill="none" viewBox="0 0 24 24">
  <path fill="#fff" fill-rule="evenodd" d="M12 5.25a9.752 9.752 0 0 0-9.252 6.67.262.262 0 0 0 0 .165A9.755 9.755 0 0 0 12 18.75a9.75 9.75 0 0 0 9.251-6.67l.001-.002a.248.248 0 0 0 0-.16v-.003A9.754 9.754 0 0 0 12 5.25ZM1.324 11.446C2.81 6.976 7.028 3.75 12 3.75c4.97 0 9.186 3.223 10.674 7.69.122.363.122.753 0 1.115C21.19 17.025 16.972 20.25 12 20.25c-4.97 0-9.187-3.223-10.676-7.69v-.001a1.762 1.762 0 0 1 0-1.113M12 9.75a2.25 2.25 0 1 0 0 4.5 2.25 2.25 0 0 0 0-4.5Zm-2.652-.402a3.75 3.75 0 1 1 5.304 5.304 3.75 3.75 0 0 1-5.304-5.304Z" clip-rule="evenodd"/>
</svg>
