<svg viewBox="0 0 24 24" fill="none" xmlns="http://www.w3.org/2000/svg">
<path d="M10.682 9.6309H4.09152C2.81758 9.6309 1.78485 10.6636 1.78485 11.9376C1.78485 13.2115 2.81758 14.2442 4.09152 14.2442H19.9087C21.1826 14.2442 22.2153 13.2115 22.2153 11.9376C22.2153 10.6636 21.1826 9.6309 19.9087 9.6309H13.3182" stroke="currentColor" stroke-width="1.5" stroke-linecap="round"/>
<path d="M13.4066 14.3732L12.0001 16.8092L10.0433 20.1984C9.40637 21.3017 7.99564 21.6797 6.89238 21.0427C5.78911 20.4058 5.41111 18.995 6.04808 17.8918L13.9566 4.19374C14.5936 3.09048 16.0043 2.71247 17.1076 3.34944C18.2109 3.98641 18.5889 5.39714 17.9519 6.5004L16.3825 9.21874" stroke="currentColor" stroke-width="1.5" stroke-linecap="round"/>
<path d="M12.0001 16.8093L13.9568 20.1985C14.5938 21.3017 16.0045 21.6797 17.1078 21.0428C18.2111 20.4058 18.5891 18.9951 17.9521 17.8918L15.656 13.9148L13.828 10.7487L12.0001 7.58261L10.0435 4.19378C9.40656 3.09051 7.99583 2.71251 6.89257 3.34948C5.78931 3.98644 5.4113 5.39718 6.04827 6.50044L7.61787 9.21906" stroke="currentColor" stroke-width="1.5" stroke-linecap="round"/>
</svg>