<svg xmlns="http://www.w3.org/2000/svg" width="24" height="24" fill="none" viewBox="0 0 24 24">
  <path stroke="#fff" stroke-linecap="round" stroke-linejoin="round" stroke-width="1.5" d="m7.5 12-2.004 2.672a2 2 0 0 0 .126 2.552l3.784 4.128c.378.413.912.648 1.473.648H15.5c2.4 0 4-2 4-4V9.429c0-2.286-3-2.286-3 0V10"/>
  <path stroke="#fff" stroke-linecap="round" stroke-linejoin="round" stroke-width="1.5" d="M16.5 10V8.286c0-2.286-3-2.286-3 0V10 7.5c0-2.286-3-2.286-3 0V10 3.499a1.5 1.5 0 0 0-3 .001V15"/>
</svg>
