<svg xmlns="http://www.w3.org/2000/svg" width="24" height="24" fill="none" viewBox="0 0 24 24">
  <path fill="#fff" fill-rule="evenodd" d="M8.717 1.565A3.375 3.375 0 0 1 12 2.754a3.375 3.375 0 0 1 5.431 3.996h3.944c1.035 0 1.875.84 1.875 1.875v1.5c0 .907-.644 1.664-1.5 1.838V19.5a2.25 2.25 0 0 1-2.25 2.25H5.25A2.25 2.25 0 0 1 3 19.5v-7.537a1.876 1.876 0 0 1-1.5-1.838v-1.5c0-1.035.84-1.875 1.875-1.875h3.194a3.374 3.374 0 0 1 2.148-5.185Zm.658 5.185h1.875V4.875A1.875 1.875 0 1 0 9.375 6.75Zm3.375-1.875V6.75h1.875a1.875 1.875 0 1 0-1.875-1.875ZM3.375 8.25A.375.375 0 0 0 3 8.625v1.5c0 .207.168.375.375.375h7.875V8.25H3.375ZM11.25 12H4.5v7.5a.75.75 0 0 0 .75.75h6V12Zm1.5 8.25V12h7.5v7.5a.75.75 0 0 1-.75.75h-6.75Zm0-9.75V8.25h8.625c.207 0 .375.168.375.375v1.5a.375.375 0 0 1-.375.375H12.75Z" clip-rule="evenodd"/>
</svg>
