<svg xmlns="http://www.w3.org/2000/svg" width="24" height="24" fill="none" viewBox="0 0 24 24">
  <path fill="#fff" fill-rule="evenodd" d="M12.234 3c2.667 0 4.595.996 6.062 2.32l.174.16-1.754 1.735c-1.063-.988-2.509-1.758-4.482-1.758-3.662 0-6.526 2.921-6.526 6.543 0 3.622 2.864 6.541 6.526 6.541 2.185 0 3.505-.8 4.377-1.593l.218-.207c.66-.655 1.111-1.579 1.313-2.823l.04-.272h-5.948v-2.458H20.6c.089.44.133.966.133 1.538 0 1.844-.51 4.123-2.155 5.751C16.982 20.124 14.941 21 12.234 21 7.217 21 3 16.961 3 12c0-4.963 4.217-9 9.234-9Z" clip-rule="evenodd"/>
</svg>
