<svg xmlns="http://www.w3.org/2000/svg" width="24" height="24" fill="none" viewBox="0 0 24 24">
  <path fill="#fff" fill-rule="evenodd" d="M2.25 8.25C2.25 5.322 4.715 3 7.687 3A5.5 5.5 0 0 1 12 5.051 5.5 5.5 0 0 1 16.312 3c2.974 0 5.438 2.322 5.438 5.25 0 3.925-2.438 7.111-4.739 9.256a25.177 25.177 0 0 1-4.244 3.17 15.216 15.216 0 0 1-.383.219l-.022.012-.007.004h-.002s-.001.001-.353-.661l-.352.662-.003-.001-.007-.004-.022-.012a10.325 10.325 0 0 1-.383-.218 25.18 25.18 0 0 1-4.244-3.17C4.688 15.36 2.25 12.174 2.25 8.25Zm9.75 12-.352.662a.75.75 0 0 0 .704 0L12 20.25Zm0-.862.006-.004a23.674 23.674 0 0 0 3.982-2.975c2.2-2.05 4.262-4.864 4.262-8.159 0-2.042-1.734-3.75-3.938-3.75-1.642 0-3.033.954-3.627 2.288a.75.75 0 0 1-1.37 0C10.722 5.454 9.33 4.5 7.687 4.5 5.485 4.5 3.75 6.208 3.75 8.25c0 3.295 2.062 6.109 4.261 8.159a23.674 23.674 0 0 0 3.983 2.975l.006.004Z" clip-rule="evenodd"/>
</svg>
