<svg xmlns="http://www.w3.org/2000/svg" width="24" height="24" fill="none" viewBox="0 0 24 24">
  <path stroke="#fff" stroke-linecap="round" stroke-linejoin="round" stroke-width="1.5" d="M16.712 4.33a9.027 9.027 0 0 1 2.958 2.958M16.712 4.33l-3.448 4.138m3.448-4.138a9.014 9.014 0 0 0-9.424 0M19.67 7.288l-4.138 3.448m4.138-3.448a9.014 9.014 0 0 1 0 9.424m-6.406-8.244c.522.187.996.487 1.388.88.393.392.693.866.88 1.388m-2.268-2.268a3.765 3.765 0 0 0-2.528 0M7.288 4.33l3.448 4.138M7.288 4.33A9.024 9.024 0 0 0 4.33 7.288m11.202 3.448a3.77 3.77 0 0 1 0 2.528m4.138 3.448-4.138-3.448m4.138 3.448a9.027 9.027 0 0 1-2.958 2.958m-1.18-6.406a3.754 3.754 0 0 1-2.268 2.268m-2.528-7.064a3.754 3.754 0 0 0-2.268 2.268m4.796 4.796 3.448 4.138m-3.448-4.138a3.764 3.764 0 0 1-2.528 0m5.976 4.138a9.013 9.013 0 0 1-9.424 0m0 0 3.448-4.138M7.288 19.67a9.026 9.026 0 0 1-2.958-2.958m6.406-1.18a3.737 3.737 0 0 1-1.388-.88 3.737 3.737 0 0 1-.88-1.388m0 0L4.33 16.712m4.138-3.448a3.765 3.765 0 0 1 0-2.528M4.33 16.712a9.014 9.014 0 0 1 0-9.424m0 0 4.138 3.448"/>
</svg>
