<svg xmlns="http://www.w3.org/2000/svg" width="24" height="24" fill="none" viewBox="0 0 24 24">
  <path fill="#fff" fill-rule="evenodd" d="M12 3.75a8.25 8.25 0 1 0 0 16.5 8.25 8.25 0 0 0 0-16.5ZM5.106 5.106a9.75 9.75 0 1 1 13.788 13.788A9.75 9.75 0 0 1 5.106 5.106ZM11.25 8.25A.75.75 0 0 1 12 7.5h.008a.75.75 0 0 1 .75.75v.008a.75.75 0 0 1-.75.75H12a.75.75 0 0 1-.75-.75V8.25Zm-.29 2.307a1.499 1.499 0 0 1 2.122 1.706l-.708 2.837.034-.018a.75.75 0 1 1 .684 1.335l-.048.025a1.5 1.5 0 0 1-2.126-1.706l.708-2.835-.006.003-.041.02a.75.75 0 1 1-.658-1.348l.039-.019Z" clip-rule="evenodd"/>
</svg>
