<svg xmlns="http://www.w3.org/2000/svg" width="24" height="24" fill="none" viewBox="0 0 24 24">
  <path fill="#fff" fill-rule="evenodd" d="M3.58 4.58a1.125 1.125 0 1 1 1.59 1.59 1.125 1.125 0 0 1-1.59-1.59Zm5.295 1.545a.75.75 0 0 1 0-1.5h12a.75.75 0 0 1 0 1.5h-12Zm-5.296 4.704A1.125 1.125 0 1 1 5.17 12.42a1.125 1.125 0 0 1-1.59-1.59Zm4.546.796a.75.75 0 0 1 .75-.75h12a.75.75 0 0 1 0 1.5h-12a.75.75 0 0 1-.75-.75Zm-4.546 5.454A1.125 1.125 0 1 1 5.17 18.67a1.125 1.125 0 0 1-1.59-1.59Zm4.546.796a.75.75 0 0 1 .75-.75h12a.75.75 0 0 1 0 1.5h-12a.75.75 0 0 1-.75-.75Z" clip-rule="evenodd"/>
</svg>
