<svg xmlns="http://www.w3.org/2000/svg" width="24" height="24" fill="none" viewBox="0 0 24 24">
  <path stroke="#fff" stroke-linecap="round" stroke-linejoin="round" stroke-width="1.5" d="M4.5 19.5h15a2.25 2.25 0 0 0 2.25-2.25V6.75A2.25 2.25 0 0 0 19.5 4.5h-15a2.25 2.25 0 0 0-2.25 2.25v10.5A2.25 2.25 0 0 0 4.5 19.5Zm6-10.125a1.875 1.875 0 1 1-3.75 0 1.875 1.875 0 0 1 3.75 0Zm1.294 6.336c-.976.52-2.065.79-3.17.789a6.72 6.72 0 0 1-3.168-.789 3.376 3.376 0 0 1 6.338 0Z"/>
  <path stroke="#fff" stroke-linecap="round" stroke-linejoin="round" stroke-width="1.5" d="m13.55 12.26 1.633 1.633 3.267-3.5"/>
</svg>
