<svg xmlns="http://www.w3.org/2000/svg" width="24" height="24" fill="none" viewBox="0 0 24 24">
  <path fill="#fff" fill-rule="evenodd" d="M12 3.75a8.25 8.25 0 1 0 0 16.5 8.25 8.25 0 0 0 0-16.5ZM5.106 5.106a9.75 9.75 0 1 1 13.788 13.788A9.75 9.75 0 0 1 5.106 5.106ZM12 5.25a.75.75 0 0 1 .75.75v.815a3.835 3.835 0 0 1 1.72.757l.415.33a.75.75 0 0 1-.934 1.174l-.415-.33a2.247 2.247 0 0 0-.786-.394v2.957a4.11 4.11 0 0 1 1.821.75c.745.559 1.179 1.344 1.179 2.191 0 .847-.434 1.632-1.179 2.191-.533.4-1.169.645-1.821.75V18a.75.75 0 0 1-1.5 0v-.81a4.12 4.12 0 0 1-1.82-.749h-.001l-.879-.659a.75.75 0 0 1 .9-1.2l.879.659c.258.193.574.336.921.42v-2.977a3.838 3.838 0 0 1-1.72-.756c-.712-.566-1.112-1.35-1.112-2.178 0-.829.4-1.612 1.112-2.178a3.836 3.836 0 0 1 1.72-.757V6a.75.75 0 0 1 .75-.75Zm-.75 3.102c-.29.082-.56.214-.786.394-.394.313-.546.681-.546 1.004 0 .323.152.69.546 1.004.222.176.491.31.786.393V8.352Zm1.5 4.486v2.824c.347-.085.663-.228.921-.421.427-.32.579-.686.579-.991 0-.305-.152-.67-.579-.991a2.521 2.521 0 0 0-.921-.42Z" clip-rule="evenodd"/>
</svg>
