<svg xmlns="http://www.w3.org/2000/svg" width="24" height="24" fill="none" viewBox="0 0 24 24">
  <path fill="#fff" fill-rule="evenodd" d="M2.25 4.875C2.25 3.84 3.09 3 4.125 3h11.25c1.035 0 1.875.84 1.875 1.875V6.75h2.625c1.035 0 1.875.84 1.875 1.875V18a3 3 0 0 1-3 3H5.25a3 3 0 0 1-3-3V4.875ZM16.152 19.5H5.25a1.5 1.5 0 0 1-1.5-1.5V4.875c0-.207.168-.375.375-.375h11.25c.207 0 .375.168.375.375V18a3 3 0 0 0 .402 1.5ZM17.25 8.25V18a1.5 1.5 0 1 0 3 0V8.625a.375.375 0 0 0-.375-.375H17.25Zm-12-.75A.75.75 0 0 1 6 6.75h3a.75.75 0 0 1 .75.75v3a.75.75 0 0 1-.75.75H6a.75.75 0 0 1-.75-.75v-3Zm1.5.75v1.5h1.5v-1.5h-1.5Zm4.5-.75a.75.75 0 0 1 .75-.75h1.5a.75.75 0 0 1 0 1.5H12a.75.75 0 0 1-.75-.75Zm0 3a.75.75 0 0 1 .75-.75h1.5a.75.75 0 0 1 0 1.5H12a.75.75 0 0 1-.75-.75Zm-6 3a.75.75 0 0 1 .75-.75h7.5a.75.75 0 0 1 0 1.5H6a.75.75 0 0 1-.75-.75Zm0 3a.75.75 0 0 1 .75-.75h7.5a.75.75 0 0 1 0 1.5H6a.75.75 0 0 1-.75-.75Z" clip-rule="evenodd"/>
</svg>
