<svg xmlns="http://www.w3.org/2000/svg" width="24" height="24" fill="none" viewBox="0 0 24 24">
  <path fill="#fff" d="M17.8 12.1a5.796 5.796 0 0 0-11.59 0c0 3.19 2.6 5.8 5.79 5.8s5.8-2.6 5.8-5.8ZM12 16.4a4.296 4.296 0 0 1 0-8.59c2.36 0 4.3 1.93 4.3 4.29 0 2.36-1.93 4.3-4.3 4.3Z"/>
  <path fill="#fff" d="M21.17 10.94C20.56 6.46 16.73 3 12.09 3s-8.47 3.47-9.08 7.94c-.59.26-1.01.85-1.01 1.53v1.82c0 .92.75 1.67 1.67 1.67.92 0 1.67-.75 1.67-1.67v-1.82c0-.61-.33-1.14-.82-1.43.55-3.69 3.74-6.54 7.58-6.54s7.03 2.85 7.58 6.54c-.49.29-.82.82-.82 1.43v1.82c0 .35.11.67.29.93-.34.79-.82 1.53-1.43 2.17-.16-.03-.32-.05-.48-.04a1.664 1.664 0 0 0-.97 2.92c.31.27.69.41 1.09.41h.12c.44-.03.85-.24 1.14-.57.29-.34.44-.77.4-1.21-.01-.19-.07-.38-.14-.55.66-.72 1.19-1.53 1.58-2.39h.07c.92 0 1.67-.75 1.67-1.67v-1.82c0-.69-.42-1.28-1.01-1.53h-.02Z"/>
</svg>
