<svg xmlns="http://www.w3.org/2000/svg" width="24" height="24" fill="none" viewBox="0 0 24 24">
  <path stroke="#fff" stroke-linecap="round" stroke-linejoin="round" stroke-width="1.5" d="M18.5 12.5v-.875a3.375 3.375 0 0 0-3.375-3.375h-1.5A1.125 1.125 0 0 1 12.5 7.125v-1.5A3.375 3.375 0 0 0 9.125 2.25H7.25m11.25 9a9 9 0 0 0-9-9H4.625c-.621 0-1.125.504-1.125 1.125v17.25c0 .621.504 1.125 1.125 1.125H12"/>
  <path fill="#fff" fill-rule="evenodd" stroke="#fff" stroke-linecap="round" stroke-linejoin="round" stroke-width=".6" d="M15.5 12.846a4.654 4.654 0 1 0 0 9.308 4.654 4.654 0 0 0 0-9.308Zm-3.89.765a5.5 5.5 0 1 1 7.78 7.779 5.5 5.5 0 0 1-7.78-7.78Zm5.828 2.275c.19.136.234.4.099.59l-2.116 2.962a.423.423 0 0 1-.643.053l-1.27-1.269a.423.423 0 1 1 .599-.598l.916.916 1.825-2.555c.136-.19.4-.234.59-.098Z" clip-rule="evenodd"/>
</svg>
