<svg xmlns="http://www.w3.org/2000/svg" width="24" height="24" fill="none" viewBox="0 0 24 24">
  <path fill="#fff" d="M18.26 2.37H5.86a3.5 3.5 0 0 0-3.49 3.49v12.4a3.5 3.5 0 0 0 3.49 3.49h12.4a3.5 3.5 0 0 0 3.49-3.49V5.86a3.5 3.5 0 0 0-3.49-3.49Zm1.99 15.89c0 1.1-.89 1.99-1.99 1.99H5.86c-1.1 0-1.99-.89-1.99-1.99V5.86c0-1.1.89-1.99 1.99-1.99h12.4c1.1 0 1.99.89 1.99 1.99v12.4Z"/>
  <path fill="#fff" d="M7.64 13.96a1.46 1.46 0 1 0 0-2.92 1.46 1.46 0 0 0 0 2.92Zm4.42 0a1.46 1.46 0 1 0 0-2.92 1.46 1.46 0 0 0 0 2.92Zm4.42 0a1.46 1.46 0 1 0 0-2.92 1.46 1.46 0 0 0 0 2.92Z"/>
</svg>
