<svg xmlns="http://www.w3.org/2000/svg" width="24" height="24" fill="none" viewBox="0 0 24 24">
  <path fill="#fff" fill-rule="evenodd" d="M16.077 8.75a5.327 5.327 0 1 0 3.23 9.563l2.728 2.729a.711.711 0 1 0 1.007-1.007l-2.729-2.728a5.327 5.327 0 0 0-4.236-8.557Zm-2.76 2.566a3.903 3.903 0 1 1 5.52 5.52 3.903 3.903 0 0 1-5.52-5.52ZM2.25 5A.75.75 0 0 1 3 4.25h17a.75.75 0 0 1 0 1.5H3A.75.75 0 0 1 2.25 5Zm0 6a.75.75 0 0 1 .75-.75h5a.75.75 0 0 1 0 1.5H3a.75.75 0 0 1-.75-.75Zm0 6a.75.75 0 0 1 .75-.75h5a.75.75 0 0 1 0 1.5H3a.75.75 0 0 1-.75-.75Z" clip-rule="evenodd"/>
</svg>
