<svg xmlns="http://www.w3.org/2000/svg" width="24" height="24" fill="none" viewBox="0 0 24 24">
  <path fill="#fff" d="M15.33 17.5H8.66c-.41 0-.75.34-.75.75s.34.75.75.75h6.67c.41 0 .75-.34.75-.75s-.34-.75-.75-.75ZM12 3.35c-3.54 0-6.43 2.88-6.43 6.43s2.88 6.43 6.43 6.43 6.43-2.88 6.43-6.43S15.55 3.35 12 3.35Zm4.85 5.68h-1.92c-.11-1.49-.55-2.84-1.22-3.85 1.64.62 2.86 2.07 3.14 3.85ZM12 14.11c-.69-.68-1.29-1.95-1.43-3.58h2.87c-.14 1.64-.74 2.9-1.43 3.58H12Zm-1.43-5.08c.14-1.64.74-2.9 1.43-3.58.69.68 1.29 1.95 1.43 3.58h-2.87.01Zm-.28-3.85c-.67 1.01-1.11 2.36-1.22 3.85H7.15a4.887 4.887 0 0 1 3.14-3.85Zm-3.14 5.35h1.92c.11 1.49.55 2.84 1.22 3.85a4.939 4.939 0 0 1-3.14-3.85Zm6.57 3.85c.67-1.01 1.11-2.36 1.22-3.85h1.92a4.887 4.887 0 0 1-3.14 3.85Z"/>
  <path fill="#fff" d="M17.67 1H2.8v21.14h14.87c1.95 0 3.54-1.59 3.54-3.54V4.54c0-1.95-1.59-3.54-3.54-3.54Zm2.04 17.6c0 1.12-.91 2.04-2.04 2.04H4.3V2.5h13.37c1.12 0 2.04.91 2.04 2.04V18.6Z"/>
</svg>
