<svg xmlns="http://www.w3.org/2000/svg" width="24" height="24" fill="none" viewBox="0 0 24 24">
  <path fill="#fff" fill-rule="evenodd" d="M6.129 1.629A3 3 0 0 1 8.25.75h7.5a3 3 0 0 1 3 3v16.5a3 3 0 0 1-3 3h-7.5a3 3 0 0 1-3-3V3.75a3 3 0 0 1 .879-2.121Zm8.121.621V3a.75.75 0 0 1-.75.75h-3A.75.75 0 0 1 9.75 3v-.75h-1.5a1.5 1.5 0 0 0-1.5 1.5v16.5a1.5 1.5 0 0 0 1.5 1.5h7.5a1.5 1.5 0 0 0 1.5-1.5V3.75a1.5 1.5 0 0 0-1.5-1.5h-1.5Zm-4.5 18a.75.75 0 0 1 .75-.75h3a.75.75 0 0 1 0 1.5h-3a.75.75 0 0 1-.75-.75Z" clip-rule="evenodd"/>
</svg>
