<svg xmlns="http://www.w3.org/2000/svg" width="24" height="24" fill="none" viewBox="0 0 24 24">
  <path fill="#fff" fill-rule="evenodd" d="M12 3.75a8.25 8.25 0 1 0 0 16.5 8.25 8.25 0 0 0 0-16.5ZM5.106 5.106a9.75 9.75 0 1 1 13.788 13.788A9.75 9.75 0 0 1 5.106 5.106Zm9.509 1.848c-1.454-1.272-3.776-1.272-5.23 0a.75.75 0 1 0 .988 1.13c.888-.778 2.366-.778 3.254 0 .83.726.83 1.856 0 2.582l-.002.002a2.21 2.21 0 0 1-.5.33h-.001c-.815.395-1.873 1.224-1.873 2.502v.75a.75.75 0 0 0 1.5 0v-.75c0-.378.352-.825 1.027-1.152.296-.143.58-.326.838-.553 1.512-1.324 1.512-3.517-.001-4.84ZM11.25 17.25a.75.75 0 0 1 .75-.75h.008a.75.75 0 0 1 .75.75v.008a.75.75 0 0 1-.75.75H12a.75.75 0 0 1-.75-.75v-.008Z" clip-rule="evenodd"/>
</svg>
