<svg xmlns="http://www.w3.org/2000/svg" width="24" height="24" fill="none" viewBox="0 0 24 24">
  <path fill="#fff" fill-rule="evenodd" d="M14.568 7.428c.454.424.478 1.135.054 1.59l-8.4 9a1.125 1.125 0 0 1-1.618.027l-4.2-4.2a1.125 1.125 0 0 1 1.591-1.59l3.377 3.376 7.606-8.149a1.125 1.125 0 0 1 1.59-.054Z" clip-rule="evenodd"/>
  <path fill="#fff" fill-rule="evenodd" d="M23.568 7.428c.454.424.478 1.135.054 1.59l-8.4 9a1.124 1.124 0 0 1-1.617.027l-4.2-4.2a1.125 1.125 0 0 1 1.59-1.59l3.377 3.376 7.606-8.149a1.125 1.125 0 0 1 1.59-.054Z" clip-rule="evenodd"/>
</svg>
