<svg xmlns="http://www.w3.org/2000/svg" width="24" height="24" fill="none" viewBox="0 0 24 24">
  <path fill="#B368FF" d="m8.823 15.157 6.335-6.334-6.335 6.334Z"/>
  <path stroke="#B368FF" stroke-linecap="round" stroke-linejoin="round" stroke-width="2" d="m8.823 15.157 6.335-6.334"/>
  <path fill="#B368FF" d="M9.547 10.795a1.25 1.25 0 1 0 0-2.5 1.25 1.25 0 0 0 0 2.5Zm5.25 5.278a1.25 1.25 0 1 0 0-2.5 1.25 1.25 0 0 0 0 2.5Z"/>
  <path stroke="#B368FF" stroke-linecap="round" stroke-linejoin="round" stroke-width="2" d="M4.6 6.922A2.323 2.323 0 0 1 6.922 4.6h1.056c.613 0 1.201-.244 1.636-.676l.74-.74a2.323 2.323 0 0 1 3.293 0l.739.74a2.322 2.322 0 0 0 1.636.676h1.056A2.322 2.322 0 0 1 19.4 6.922v1.056c0 .613.243 1.201.675 1.636l.74.74a2.323 2.323 0 0 1 0 3.293l-.74.739a2.322 2.322 0 0 0-.675 1.636v1.056a2.322 2.322 0 0 1-2.323 2.323h-1.056c-.613 0-1.201.243-1.636.675l-.74.74a2.323 2.323 0 0 1-3.293 0l-.739-.74a2.322 2.322 0 0 0-1.636-.675H6.922A2.322 2.322 0 0 1 4.6 17.078v-1.056c0-.613-.244-1.201-.676-1.636l-.74-.74a2.323 2.323 0 0 1 0-3.293l.74-.739A2.323 2.323 0 0 0 4.6 7.978V6.922Z"/>
</svg>
