<svg xmlns="http://www.w3.org/2000/svg" width="24" height="24" fill="none" viewBox="0 0 24 24">
  <path stroke="#fff" stroke-linecap="round" stroke-linejoin="round" stroke-width="1.4" d="M16.5 6v.75m0 3v.75m0 3v.75m0 3V18M3.375 5.25c-.621 0-1.125.504-1.125 1.125v3.026a3 3 0 0 1 0 5.198v3.026c0 .621.504 1.125 1.125 1.125h16.25c.621 0 1.125-.504 1.125-1.125v-3.026a3 3 0 0 1 0-5.198V6.375c0-.621-.504-1.125-1.125-1.125H3.375Z"/>
  <path stroke="#fff" stroke-linecap="round" stroke-linejoin="round" stroke-width="1.2" d="M12.791 15.212c-.976.52-2.064.79-3.17.789a6.72 6.72 0 0 1-3.168-.789 3.376 3.376 0 0 1 6.338 0ZM11.5 9.875a1.875 1.875 0 1 1-3.751 0 1.875 1.875 0 0 1 3.751 0Z"/>
</svg>
