<svg xmlns="http://www.w3.org/2000/svg" width="24" height="24" fill="none" viewBox="0 0 24 24">
  <g clip-path="url(#a)">
    <path stroke="#fff" stroke-linecap="round" stroke-linejoin="round" stroke-width="1.5" d="M5.5 12h-1L9 7.5l4.5 4.5h-1m-7 0v3.5a1 1 0 0 0 1 1h5a1 1 0 0 0 1-1V12"/>
    <path fill="#fff" d="M7.5 16.5v-3a1 1 0 0 1 1-1h1a1 1 0 0 1 1 1v3"/>
  </g>
  <path fill="#fff" d="M19.6 2H4.98C2.78 2 1 3.57 1 5.49v12.4c0 1.92 1.79 3.49 3.98 3.49H19.6c2.2 0 3.98-1.57 3.98-3.49V5.49C23.58 3.57 21.79 2 19.6 2Zm2.48 15.89c0 1.1-1.11 1.99-2.48 1.99H4.98c-1.37 0-2.48-.89-2.48-1.99V5.49c0-1.1 1.11-1.99 2.48-1.99H19.6c1.37 0 2.48.89 2.48 1.99v12.4Z"/>
  <path fill="#fff" d="M19.49 8.04h-2.57c-.41 0-.75.34-.75.75s.34.75.75.75h2.57c.41 0 .75-.34.75-.75s-.34-.75-.75-.75Zm0 3.27h-2.57c-.41 0-.75.34-.75.75s.34.75.75.75h2.57c.41 0 .75-.34.75-.75s-.34-.75-.75-.75Zm0 3.15h-1.4c-.41 0-.75.34-.75.75s.34.75.75.75h1.4c.41 0 .75-.34.75-.75s-.34-.75-.75-.75Z"/>
  <defs>
    <clipPath id="a">
      <path fill="#fff" d="M3 6h12v12H3z"/>
    </clipPath>
  </defs>
</svg>
