<svg xmlns="http://www.w3.org/2000/svg" width="24" height="24" fill="none" viewBox="0 0 24 24">
  <path fill="#fff" fill-rule="evenodd" d="M3.879 3.879A3 3 0 0 1 6 3h1.5a.75.75 0 0 1 0 1.5H6A1.5 1.5 0 0 0 4.5 6v1.5a.75.75 0 0 1-1.5 0V6a3 3 0 0 1 .879-2.121ZM15.75 3.75A.75.75 0 0 1 16.5 3H18a3 3 0 0 1 3 3v1.5a.75.75 0 0 1-1.5 0V6A1.5 1.5 0 0 0 18 4.5h-1.5a.75.75 0 0 1-.75-.75Zm-12 12a.75.75 0 0 1 .75.75V18A1.5 1.5 0 0 0 6 19.5h1.5a.75.75 0 0 1 0 1.5H6a3 3 0 0 1-3-3v-1.5a.75.75 0 0 1 .75-.75Zm16.5 0a.75.75 0 0 1 .75.75V18a3 3 0 0 1-3 3h-1.5a.75.75 0 0 1 0-1.5H18a1.5 1.5 0 0 0 1.5-1.5v-1.5a.75.75 0 0 1 .75-.75ZM4 11.75a.75.75 0 0 1 .75-.75h14.5a.75.75 0 0 1 0 1.5H4.75a.75.75 0 0 1-.75-.75Z" clip-rule="evenodd"/>
</svg>
