<svg xmlns="http://www.w3.org/2000/svg" width="24" height="24" fill="none" viewBox="0 0 24 24">
  <g clip-path="url(#a)">
    <path fill="#fff" fill-rule="evenodd" d="M12 5.25c1.213 0 2.415.046 3.605.135a3.256 3.256 0 0 1 3.01 3.01c.044.583.077 1.17.1 1.759L17.03 8.47a.75.75 0 1 0-1.06 1.06l3 3a.75.75 0 0 0 1.06 0l3-3a.75.75 0 0 0-1.06-1.06l-1.752 1.751c-.023-.65-.06-1.296-.108-1.939a4.756 4.756 0 0 0-4.392-4.392 49.42 49.42 0 0 0-7.436 0A4.756 4.756 0 0 0 3.89 8.282a37.26 37.26 0 0 0-.046.672.75.75 0 1 0 1.497.092c.013-.217.028-.434.044-.651a3.256 3.256 0 0 1 3.01-3.01c1.19-.09 2.392-.135 3.605-.135Zm-6.97 6.22a.75.75 0 0 0-1.06 0l-3 3a.75.75 0 1 0 1.06 1.06l1.752-1.751c.023.65.06 1.296.108 1.939a4.756 4.756 0 0 0 4.392 4.392c2.475.187 4.96.187 7.436 0a4.756 4.756 0 0 0 4.392-4.392c.017-.223.032-.447.046-.672a.75.75 0 0 0-1.497-.092c-.013.217-.028.434-.044.651a3.256 3.256 0 0 1-3.01 3.01c-2.4.18-4.81.18-7.21 0a3.256 3.256 0 0 1-3.01-3.01 47.745 47.745 0 0 1-.1-1.759L6.97 15.53a.75.75 0 0 0 1.06-1.06l-3-3Z" clip-rule="evenodd"/>
  </g>
  <defs>
    <clipPath id="a">
      <path fill="#fff" d="M0 0h24v24H0z"/>
    </clipPath>
  </defs>
</svg>
