<svg xmlns="http://www.w3.org/2000/svg" width="24" height="24" fill="none" viewBox="0 0 24 24">
  <path fill="#fff" fill-rule="evenodd" d="M8 4.25a.25.25 0 0 0-.25.25v1.75h8.5V4.5a.25.25 0 0 0-.25-.25H8Zm9.75 2V4.5A1.75 1.75 0 0 0 16 2.75H8A1.75 1.75 0 0 0 6.25 4.5v1.75H3a.75.75 0 0 0 0 1.5h.814l1.108 12.406a1.75 1.75 0 0 0 1.743 1.594h10.67a1.75 1.75 0 0 0 1.743-1.594L20.186 7.75H21a.75.75 0 0 0 0-1.5h-3.25Zm.93 1.5H5.32l1.096 12.272a.25.25 0 0 0 .249.228h10.67a.25.25 0 0 0 .25-.228L18.68 7.75ZM10 10.25a.75.75 0 0 1 .75.75v6a.75.75 0 0 1-1.5 0v-6a.75.75 0 0 1 .75-.75Zm4 0a.75.75 0 0 1 .75.75v6a.75.75 0 0 1-1.5 0v-6a.75.75 0 0 1 .75-.75Z" clip-rule="evenodd"/>
</svg>
