<svg width="20" height="20" viewBox="0 0 20 20" fill="none" xmlns="http://www.w3.org/2000/svg">
    <path fill-rule="evenodd" clip-rule="evenodd" d="M5.85446 2.51161C4.96788 2.51161 4.11761 2.8638 3.49071 3.49071C2.8638 4.11761 2.51161 4.96788 2.51161 5.85446V14.083C2.51161 14.9696 2.8638 15.8199 3.49071 16.4468C4.11761 17.0737 4.96788 17.4259 5.85446 17.4259H14.083C14.9696 17.4259 15.8199 17.0737 16.4468 16.4468C17.0737 15.8199 17.4259 14.9696 17.4259 14.083V5.85446C17.4259 4.96788 17.0737 4.11761 16.4468 3.49071C15.8199 2.8638 14.9696 2.51161 14.083 2.51161H5.85446ZM2.39974 2.39974C3.31599 1.48349 4.55869 0.96875 5.85446 0.96875H14.083C15.3788 0.96875 16.6215 1.48349 17.5378 2.39974C18.454 3.31599 18.9688 4.55869 18.9688 5.85446V14.083C18.9688 15.3788 18.454 16.6215 17.5378 17.5378C16.6215 18.454 15.3788 18.9688 14.083 18.9688H5.85446C4.55869 18.9688 3.31599 18.454 2.39974 17.5378C1.48349 16.6215 0.96875 15.3788 0.96875 14.083V5.85446C0.96875 4.55869 1.48349 3.31599 2.39974 2.39974ZM7.24133 7.24133C7.96468 6.51797 8.94576 6.1116 9.96874 6.1116C10.9917 6.1116 11.9728 6.51797 12.6962 7.24133C13.4195 7.96468 13.8259 8.94576 13.8259 9.96874C13.8259 10.9917 13.4195 11.9728 12.6962 12.6962C11.9728 13.4195 10.9917 13.8259 9.96874 13.8259C8.94576 13.8259 7.96468 13.4195 7.24133 12.6962C6.51797 11.9728 6.1116 10.9917 6.1116 9.96874C6.1116 8.94576 6.51797 7.96468 7.24133 7.24133ZM9.96874 7.65445C9.35495 7.65445 8.7663 7.89828 8.33229 8.33229C7.89828 8.7663 7.65445 9.35495 7.65445 9.96874C7.65445 10.5825 7.89828 11.1712 8.33229 11.6052C8.7663 12.0392 9.35495 12.283 9.96874 12.283C10.5825 12.283 11.1712 12.0392 11.6052 11.6052C12.0392 11.1712 12.283 10.5825 12.283 9.96874C12.283 9.35495 12.0392 8.7663 11.6052 8.33229C11.1712 7.89828 10.5825 7.65445 9.96874 7.65445ZM15.3687 5.34017C15.3687 4.91412 15.0234 4.56874 14.5973 4.56874C14.1713 4.56874 13.8259 4.91412 13.8259 5.34017V5.35046C13.8259 5.77651 14.1713 6.12189 14.5973 6.12189C15.0234 6.12189 15.3687 5.77651 15.3687 5.35046V5.34017Z" fill="#888C9D"/>
</svg>
