<svg width="18" height="15" viewBox="0 0 18 15" fill="none" xmlns="http://www.w3.org/2000/svg">
    <path d="M1.07288 6.53253C1.07288 6.53253 8.81273 3.23978 11.497 2.08031C12.5261 1.61656 16.0157 0.132415 16.0157 0.132415C16.0157 0.132415 17.6263 -0.516842 17.4921 1.05997C17.4473 1.70931 17.0894 3.98175 16.7315 6.43977C16.1946 9.91815 15.613 13.7211 15.613 13.7211C15.613 13.7211 15.5236 14.7878 14.763 14.9733C14.0024 15.1588 12.7497 14.324 12.5261 14.1385C12.3471 13.9994 9.17064 11.9123 8.00742 10.892C7.69422 10.6138 7.33635 10.0573 8.05212 9.40797C9.66275 7.8775 11.5865 5.97606 12.7497 4.77021C13.2866 4.21367 13.8234 2.91511 11.5865 4.49192C8.41007 6.76445 5.27836 8.8978 5.27836 8.8978C5.27836 8.8978 4.5625 9.36156 3.22037 8.94418C1.87815 8.52684 0.312275 7.97025 0.312275 7.97025C0.312275 7.97025 -0.761365 7.27462 1.07288 6.53253Z" fill="#888C9D"/>
</svg>
